<?xml version="1.0" encoding="utf-8"?>
<svg viewBox="0 0 630 430" style="height: auto;" xmlns="http://www.w3.org/2000/svg">
  <rect width="610.508" height="309.173" style="fill: rgb(255, 255, 255);" x="11.546" y="11.546"/>
  <g data-element="wrapper" transform="matrix(0.9000000357627869, 0, 0, 0.9000000357627869, 45.14560071067808, -51.68208848482635)">
    <g>
      <g data-element="icon" transform="scale(0.174506865606632) translate(2546.5377849691054 934.4050107245498)">
        <path id="color_x5F_2" d="M343.559,197.029c-7.394,0.351-14.759,1.523-22.596,3.84    c-15.928,4.709-30.701,13.185-43.27,23.99c-14.143,12.159-23.584,28.785-29.18,46.416c-3.199,10.079-4.774,20.556-5.614,31.073    c-0.418,5.23-0.646,10.475-0.855,15.718c-0.115,2.865-0.225,7.501-0.548,12.615c6.159-11.149,19.37-16.182,31.508-17.012    c17.37-1.188,37.929,1.263,54.242-5.94c41.738-18.433,66.872-65.803,77.528-107.92c-5.447,1.3-32.65-0.942-36.489-1.442    C359.586,197.231,351.555,196.65,343.559,197.029z M376.191,215.639h3.408l3.369,0.214c-2.205,0.459-4.402,0.987-6.521,1.545    l-3.191,0.921l-3.146,1.019l-3.11,1.094l-3.075,1.176c-2.03,0.84-4.059,1.661-6.065,2.541c-2.008,0.884-3.983,1.842-5.975,2.76    c-1.987,0.939-3.963,1.902-5.933,2.89l-11.395,5.771l-9.598,6.991l-6.384,4.773c0.15,0.085,0.294,0.181,0.449,0.262    c0.889,0.457,1.801,0.887,2.763,1.241c0.471,0.196,0.962,0.347,1.458,0.505c0.484,0.177,0.988,0.32,1.497,0.449    c1.013,0.265,2.048,0.533,3.111,0.71c1.055,0.21,2.135,0.39,3.231,0.503c2.189,0.239,4.438,0.323,6.701,0.26    c2.267-0.064,4.55-0.271,6.828-0.599c2.278-0.33,4.561-0.749,6.826-1.283c4.545-1.031,9.024-2.483,13.414-4.389    c-3.698,3.066-7.978,5.427-12.432,7.379c-4.477,1.919-9.205,3.301-14.112,4.123c-1.228,0.205-2.466,0.378-3.718,0.491    c-1.25,0.133-2.516,0.191-3.79,0.203c-1.272,0.019-2.561-0.01-3.853-0.133c-1.286-0.137-2.59-0.302-3.873-0.631    c-1.285-0.301-2.574-0.671-3.815-1.211c-1.254-0.49-2.477-1.117-3.629-1.862c-0.891-0.553-1.725-1.204-2.524-1.894l-7.241,5.529    c-1.562,1.221-3.1,2.473-4.681,3.672l-4.625,3.727l-4.577,3.777l-4.376,3.83c0.085,0.063,0.167,0.136,0.253,0.198    c1.009,0.699,2.004,1.397,3.058,2c0.51,0.326,1.051,0.6,1.589,0.877c0.522,0.304,1.056,0.586,1.61,0.833    c1.091,0.52,2.199,1.018,3.337,1.458c2.271,0.888,4.638,1.653,7.11,2.22c2.468,0.584,5.038,0.943,7.655,1.091    c1.311,0.066,2.629,0.084,3.957,0.065c1.327-0.04,2.659-0.114,3.995-0.236c1.332-0.141,2.672-0.291,4.014-0.483    c1.34-0.2,2.673-0.457,4.013-0.726c5.341-1.136,10.663-2.786,15.781-5.304c-1.974,2.056-4.292,3.833-6.684,5.465    c-2.421,1.605-4.995,2.993-7.669,4.197c-2.681,1.177-5.456,2.206-8.323,2.973c-1.435,0.381-2.889,0.713-4.357,1.008    c-1.472,0.275-2.959,0.503-4.463,0.68c-3.009,0.337-6.083,0.437-9.189,0.228c-1.55-0.121-3.108-0.309-4.657-0.607    c-1.539-0.329-3.096-0.675-4.593-1.229c-1.504-0.521-3-1.116-4.408-1.889c-1.433-0.719-2.814-1.562-4.096-2.528    c-1.311-0.925-2.539-1.966-3.676-3.082c-0.162-0.153-0.302-0.324-0.459-0.482c-1.636,1.438-3.269,2.898-4.909,4.395l-2.1,1.925    c-0.678,0.664-1.403,1.301-2.108,1.96c-0.694,0.668-1.405,1.331-2.135,1.992c-0.709,0.673-1.446,1.338-2.202,2.003    c0.005-0.023,0.013-0.045,0.019-0.069c-0.633,0.637-1.27,1.272-1.93,1.897c-1.382,1.478-2.84,2.922-4.375,4.348    c0.667-1.961,1.411-3.903,2.23-5.813c0.862-1.88,1.826-3.708,2.774-5.564c1.034-1.789,2.132-3.542,3.206-5.328    c1.166-1.707,2.362-3.4,3.581-5.081c1.28-1.623,2.571-3.245,3.899-4.836c1.359-1.557,2.77-3.069,4.162-4.602l3.653-3.755    c0.074-0.776,0.164-1.6,0.299-2.466c0.14-1.12,0.383-2.318,0.635-3.584c0.243-1.269,0.623-2.58,0.966-3.942    c0.409-1.348,0.828-2.738,1.339-4.122c0.469-1.396,1.085-2.766,1.647-4.147c1.201-2.736,2.593-5.374,4.014-7.763    c0.757-1.171,1.453-2.315,2.195-3.35c0.724-1.043,1.416-2.019,2.098-2.889c1.356-1.744,2.591-3.106,3.459-4.046    c0.892-0.918,1.401-1.443,1.401-1.443s-0.345,0.643-0.948,1.769c-0.619,1.107-1.456,2.718-2.363,4.677    c-0.488,0.959-0.964,2.025-1.455,3.152c-0.508,1.118-0.954,2.337-1.446,3.574c-0.444,1.26-0.963,2.528-1.376,3.862    c-0.454,1.315-0.837,2.675-1.256,4.016c-0.738,2.719-1.385,5.444-1.886,8.013c-0.13,0.7-0.254,1.384-0.372,2.054l2.781-2.482    c1.558-1.343,3.16-2.634,4.74-3.951c3.203-2.573,6.477-5.048,9.807-7.429l5.034-3.502l4.12-2.721    c0.036-0.086,0.067-0.167,0.104-0.255c0.75-1.731,1.689-3.729,2.867-5.791c1.168-2.063,2.553-4.198,4.102-6.213    c1.51-2.039,3.217-3.935,4.912-5.592c1.69-1.665,3.408-3.057,4.938-4.15c1.537-1.087,2.884-1.875,3.827-2.41    c0.961-0.5,1.511-0.787,1.511-0.787s-0.425,0.447-1.17,1.229c-0.75,0.767-1.783,1.896-2.926,3.306    c-0.598,0.677-1.173,1.478-1.807,2.284c-0.603,0.838-1.259,1.692-1.858,2.637c-1.261,1.837-2.453,3.885-3.562,5.968    c-0.574,1.026-1.052,2.114-1.579,3.143c-0.142,0.307-0.269,0.599-0.409,0.901c0.777-0.485,1.548-0.983,2.333-1.456l0.355-0.215    c0.077-0.046,0.168-0.09,0.25-0.125c4.143-1.659,8.276-3.425,12.541-4.93c2.127-0.767,4.268-1.509,6.418-2.228    c2.155-0.715,4.351-1.323,6.541-1.935c2.202-0.585,4.411-1.142,6.648-1.582c2.243-0.432,4.486-0.831,6.748-1.111    C371.658,215.907,373.922,215.696,376.191,215.639z M443.711,187.045c1.537-0.938,3.226-1.638,4.99-2.104    c-0.249-0.684-0.513-1.363-0.81-2.031c-0.893-2.011-2.147-3.979-3.449-5.816c-0.188-0.265-0.382-0.533-0.579-0.804    c-1.109-1.521-2.295-3.142-2.719-4.956c-0.51-2.178,0.383-4.251,2.783-4.457c3.505-0.301,5.372,2.898,6.758,5.548    c0.849,1.622,1.529,3.323,2.07,5.071c-0.31-2.333-0.859-4.628-1.633-6.806c-0.112-0.317-0.231-0.638-0.352-0.962    c-0.676-1.824-1.4-3.771-1.313-5.693c0.104-2.311,1.573-4.121,4.019-3.654c3.571,0.684,4.533,4.392,5.167,7.416    c0.654,3.119,0.794,6.33,0.521,9.502c0.446-2.703,0.763-5.43,1.321-8.121c0.582-2.808,0.676-5.711,1.578-8.476    c0.811-2.482,3.147-5.402,6.1-4.596c3.479,0.951,4,4.28,3.159,7.36c-0.4,1.466-1.011,2.877-1.661,4.268    c-0.409,0.872-0.833,1.737-1.23,2.601c-1.474,3.204-2.891,6.428-4.17,9.699c1.401-3.353,3.286-6.515,5.699-9.238    c2.049-2.314,4.719-5.059,8.161-3.885c2.355,0.804,2.736,3.105,1.683,5.165c-0.877,1.713-2.471,3.045-3.961,4.295    c-0.265,0.223-0.527,0.443-0.781,0.663c-2.199,1.895-4.188,4.124-5.843,6.576c1.496-1.474,3.116-2.822,4.885-3.959    c2.516-1.615,5.723-3.47,8.619-1.473c1.982,1.367,1.732,3.609,0.21,5.25c-1.266,1.366-3.1,2.188-4.814,2.96    c-0.307,0.138-0.608,0.274-0.903,0.411c-2.04,0.953-4.104,2.042-5.875,3.347c-0.291,0.214-0.571,0.439-0.854,0.663    c1.872,1.873,3.364,4.084,4.199,6.565c3.422,10.167,0.209,25.996-3.238,35.322c-11.07,29.948-33.365,58.931-63.564,72.54    c-6.241,2.812-12.272-4.431-8.362-10.048c12.007-17.249,21.508-37.472,26.9-56.831c3.992-14.335,3.162-37.956,14.383-49.056    C441.683,188.429,442.663,187.684,443.711,187.045z M131.314,248.551c-0.524-4.32,0.978-11.252,4.828-13.976    c2.122-1.502,5.053-1.293,7.386-2.345c2.605-1.173,5.18-2.847,6.768-5.277c2.218-3.395,4.443-6.671,7.206-9.38    c-3.525-3.031-9.913-9.387-8.398-14.602c3.3-5.747,7.689-3.318,7.689-3.318s1.889,9.844,5.417,14.316    c0.962-0.55,1.965-1.058,3.068-1.469c3.9-1.454,8.489-0.951,12.21-2.493c4.501-1.863,6.893-6.719,11.388-8.708    c12.354-5.463,20.919,9.582,25.98,18.24c5.247,8.977,8.803,18.939,10.428,29.208c0.048,0.302,0.094,0.604,0.138,0.906    c0.645,4.389,1.017,8.888,0.145,13.272c-1.561,7.845-8.867,3.484-12.862,8.458c-1.583,1.97-2.491,4.406-4.001,6.433    c-2.295,3.08-5.997,5.065-9.833,5.274c-2.313,0.125-4.853-0.308-6.777,0.983c-1.888,1.267-2.471,3.723-3.623,5.683    c-5.816,9.9-16.901,2.363-23.715-1.627c-10.816-6.333-20.244-15.05-27.307-25.411C134.522,258.425,131.941,253.71,131.314,248.551z     M298.554,365.693c0,8.45-6.851,15.3-15.301,15.3s-15.301-6.85-15.301-15.3s6.851-15.301,15.301-15.301    S298.554,357.243,298.554,365.693z M137.696,178.407c-5.838,0-10.571-4.732-10.571-10.57c0-5.838,4.733-10.571,10.571-10.571    c5.839,0,10.571,4.733,10.571,10.571C148.268,173.675,143.535,178.407,137.696,178.407z M389.473,171.27    c-8.45,0-15.301-6.851-15.301-15.3c0-8.45,6.851-15.301,15.301-15.301s15.301,6.851,15.301,15.301    C404.773,164.419,397.923,171.27,389.473,171.27z" style="fill: rgb(130, 196, 48);"/>
        <path id="color_x5F_1" d="M289.571,489.263c0.379,8.311-0.429,14.777-1.106,19.103    c-0.348,2.166-0.722,3.805-0.965,4.905c-0.26,1.097-0.394,1.663-0.394,1.663l-0.831-0.113c0,0,0.11-2.312-0.048-6.598    c-0.133-4.272-0.687-10.536-2.419-18.211c-1.646-7.68-4.74-16.717-9.563-26.374c-4.815-9.653-11.45-19.929-19.971-29.987    c-8.5-10.082-18.91-19.961-30.874-29.384c-11.9-9.476-25.444-18.539-39.776-27.854c-7.249-4.705-14.618-9.49-22.078-14.333    c-7.478-4.893-15.141-10.05-22.706-15.561c-7.57-5.529-15.169-11.334-22.509-17.712c-3.695-3.225-7.207-6.406-10.918-10.03    l-2.484-2.453l-1.359-1.372l-1.292-1.333c-1.726-1.775-3.422-3.594-5.092-5.446c-6.723-7.365-12.891-15.419-18.435-24.01    c-2.763-4.301-5.357-8.749-7.703-13.357c-1.177-2.337-2.281-4.542-3.412-7.149l-0.829-1.897l-0.661-1.613l-0.641-1.577l-0.426-1.076    l-0.34-0.919c-7.378-19.645-9.792-40.21-8.157-59.854c0.811-9.77,2.719-19.538,5.743-28.725c1.489-4.612,3.308-9.084,5.353-13.405    c1.034-2.156,2.11-4.281,3.275-6.347c0.582-1.048,1.275-2.193,1.911-3.272c0.352-0.604,0.58-0.926,0.859-1.368l0.806-1.25l0.58-0.9    l0.498-0.731l0.995-1.455c0.672-0.961,1.374-1.896,2.063-2.834c1.42-1.846,2.893-3.629,4.399-5.356    c3.029-3.443,6.249-6.623,9.606-9.528c6.663-5.817,14.121-10.499,21.443-13.857c15.162-7.044,29.907-8.856,42.503-8.704    c3.192,0.06,6.116,0.207,9.179,0.505c0.023,0.003,0.047,0.005,0.071,0.007c0.637-1.235,1.326-2.453,2.127-3.632    c16.952-24.991,56.69-14.591,79.826-4.811c17.778,7.517,34.028,16.55,49.24,28.031c2.637,1.991,4.083,5.83,3.266,8.279    c-0.764,2.289-1.146,3.433-1.909,5.722c-0.818,2.45-3.583,2.677-6.236,0.608c-19.348-14.058-38.806-24.249-61.38-32.028    c-3.131-0.963-6.37,0.365-7.203,2.854c-0.835,2.489,1.052,5.192,4.184,6.148c22.585,7.735,42.06,17.887,61.431,31.907    c2.658,2.063,4.1,5.805,3.282,8.255c-0.507,1.52-0.761,2.28-1.268,3.8c-0.817,2.45-3.589,2.688-6.251,0.633    c-19.406-13.966-38.903-24.062-61.505-31.735c-3.135-0.949-6.377,0.393-7.21,2.881c-0.834,2.49,1.054,5.181,4.191,6.123    c22.612,7.63,42.127,17.687,61.556,31.614c2.666,2.05,4.113,5.78,3.296,8.231c-0.538,1.612-0.807,2.417-1.346,4.029    c-0.817,2.45-3.608,2.616-6.266,0.657c-14.728-10.852-30.667-20.007-47.499-26.624c-17.543-6.897-37.299-5.296-54.691-12.717    c-8.251-3.521-12.605-6.531-13.599-14.626c-1.382,0.099-2.81,0.229-4.21,0.389c-9.736,1.121-20.491,4.219-29.88,10.025    c-4.917,3.027-9.348,6.678-13.539,11.055c-2.069,2.19-4.027,4.556-5.837,7.086c-0.896,1.271-1.769,2.571-2.601,3.91l-1.234,2.024    l-0.59,1.035l-0.297,0.518l-0.074,0.129c-0.055,0.091,0.22-0.356,0.061-0.089l-0.176,0.326l-0.708,1.309    c-0.22,0.415-0.52,0.937-0.633,1.212l-0.945,1.996c-0.679,1.495-1.354,3.004-1.971,4.556c-1.242,3.103-2.284,6.348-3.211,9.683    c-1.811,6.709-2.97,13.74-3.404,21.184c-0.893,14.747,0.835,30.407,5.842,44.874c4.98,14.594,13.573,28.765,24.277,41.814    c1.329,1.639,2.689,3.263,4.092,4.863l1.048,1.203l0.432,0.498l0.58,0.638l2.299,2.52c2.719,2.95,5.852,6.12,8.918,9.086    c6.183,6.016,12.718,11.809,19.448,17.409c6.767,5.586,13.629,11.03,20.618,16.447c6.922,5.378,13.961,10.682,20.802,16.086    c13.754,10.74,26.984,21.686,38.727,33.265c5.841,5.799,11.285,11.729,16.256,17.729c4.95,6.021,9.408,12.124,13.31,18.231    c7.814,12.222,13.356,24.363,16.881,35.534C287.719,470.822,289.2,480.969,289.571,489.263z M541.113,193.046l0.068,1.913    l-0.003,2.156l-0.023,3.407l-0.012,1.704c-0.001,0.56-0.061,1.314-0.09,1.962l-0.233,4.04c-0.109,2.768-0.491,5.179-0.772,7.754    c-0.248,2.548-0.774,5.052-1.174,7.575c-0.905,5.027-2.084,9.995-3.476,14.882c-2.769,9.783-6.604,19.165-11.157,27.99    c-4.558,8.824-9.749,17.167-15.57,24.805c-2.906,3.819-5.899,7.516-8.994,11.06l-1.31,1.514l-1.093,1.193l-2.18,2.381    c-1.451,1.583-2.896,3.16-4.335,4.73c-3.157,3.205-6.288,6.383-9.389,9.53c-3.118,2.988-6.206,5.948-9.261,8.877    c-3.106,2.843-6.18,5.656-9.216,8.435c-3.095,2.687-6.152,5.341-9.169,7.96c-12.046,10.283-23.655,19.543-34.455,27.904    c7.983,15.774,6.672,36.251-11.818,52.706c-25.611,22.793-72.847,38.814-88.789,20.904c-15.941-17.911,5.451-62.974,31.062-85.769    c16.983-15.115,35.807-15.354,50.245-7.626c0.453-0.406,0.884-0.793,1.34-1.203c10.022-9.124,20.842-18.943,31.872-29.569    c2.725-2.677,5.484-5.393,8.279-8.14c2.752-2.766,5.537-5.564,8.353-8.394c2.739-2.874,5.51-5.78,8.306-8.714    c2.648-2.934,5.321-5.896,8.018-8.883c1.398-1.607,2.804-3.22,4.215-4.839l2.119-2.434l1.063-1.22l0.777-0.966    c2.523-3.04,4.936-6.184,7.262-9.401c4.584-6.476,8.877-13.206,12.474-20.311c3.603-7.096,6.583-14.497,8.926-22.084    c1.147-3.802,2.13-7.653,2.895-11.55c0.328-1.956,0.8-3.894,1.007-5.87c0.229-1.939,0.604-4.017,0.719-5.792l0.27-2.758    c0.041-0.485,0.108-0.862,0.129-1.438l0.066-1.703l0.132-3.404l0.033-0.852l0.016-0.425v-0.003l-0.008-1.461    c0.06-3.983-0.242-7.944-0.587-11.884c-0.858-7.855-2.422-15.566-4.827-22.863c-2.469-7.263-5.733-14.101-9.755-20.255l-1.559-2.261    l-0.775-1.134l-0.753-0.971l-1.479-1.951c-0.188-0.292-0.647-0.763-0.98-1.149l-1.078-1.214c-2.318-2.735-4.941-5.103-7.573-7.452    c-10.771-9.108-24.153-14.69-37.722-17.049c-3.398-0.57-6.799-1.005-10.189-1.211c-1.676-0.064-3.433-0.239-4.98-0.226    c-1.619-0.013-3.062-0.118-5.019,0.011c-6.817,0.246-13.247,0.947-19.464,2.219c-1.56,0.275-3.094,0.594-4.59,1    c-1.499,0.392-3.016,0.699-4.482,1.108c-2.912,0.879-5.811,1.659-8.537,2.706c-5.545,1.883-10.642,4.189-15.388,6.517    c-9.452,4.75-17.171,10.103-23.3,14.887c-6.156,4.812-10.447,9.23-13.481,12.202c-2.88,3.185-4.476,4.84-4.476,4.84l-0.745-0.521    c0,0,1.009-2.067,3.015-5.863c1.098-1.854,2.45-4.214,4.176-6.893c0.91-1.3,1.887-2.697,2.93-4.188    c1.036-1.508,2.291-2.979,3.543-4.614c5.111-6.443,12.167-13.711,21.439-20.825c4.701-3.438,9.858-7.005,15.699-10.116    c5.791-3.201,12.178-6.123,19.121-8.517c3.454-1.268,7.075-2.272,10.786-3.304c1.865-0.468,3.772-0.84,5.692-1.266l1.445-0.31    l0.363-0.078l0.182-0.039l0.422-0.058l0.674-0.114c0.899-0.151,1.804-0.303,2.711-0.455c1.691-0.332,3.955-0.545,6.064-0.787    c2.18-0.282,4.193-0.343,6.31-0.471c4.198-0.2,8.494-0.133,12.861,0.124c17.393,1.106,36.261,6.833,52.503,18.673    c4.014,2.973,7.894,6.259,11.433,9.901l1.147,1.151c0.397,0.412,0.724,0.695,1.207,1.257l2.697,3.059l1.337,1.545l1.174,1.5    l2.343,3.02c6.022,8.229,10.822,17.363,14.541,26.882c3.618,9.552,6.173,19.508,7.553,29.616    C540.484,182.86,541.008,187.945,541.113,193.046z M338.095,406.607c1.337-2.568,2.622-4.871,4.009-7.322    c2.76-4.837,5.692-9.57,8.621-13.908c2.923-4.342,5.847-8.283,8.483-11.605c1.312-1.666,2.533-3.2,3.689-4.493    c1.111-1.347,2.134-2.478,2.974-3.425c0.854-0.943,1.523-1.685,1.979-2.189c0.455-0.52,0.697-0.796,0.697-0.796    s-0.335,0.149-0.963,0.43c-0.612,0.306-1.554,0.7-2.686,1.31c-1.109,0.637-2.515,1.358-4.015,2.342    c-1.517,0.967-3.179,2.132-4.965,3.456c-1.76,1.354-3.609,2.896-5.482,4.623c-1.857,1.74-3.78,3.628-5.621,5.707    c-1.895,2.042-3.676,4.294-5.46,6.603c-1.741,2.34-3.452,4.762-5.014,7.275c-1.604,2.453-3.091,5.183-4.417,7.599    c-1.401,2.661-2.592,5.258-3.611,7.888c-1.008,2.618-1.839,5.207-2.467,7.707c-0.615,2.506-1.078,4.9-1.344,7.141    c-0.557,4.477-0.429,8.255-0.103,10.873c0.136,1.321,0.329,2.322,0.491,3.009c0.136,0.686,0.242,1.054,0.242,1.054    s0.163-0.347,0.406-1.002c0.248-0.645,0.613-1.592,1.077-2.795c0.956-2.361,2.237-5.689,3.921-9.532    c0.821-1.928,1.759-3.987,2.75-6.147c0.979-2.166,2.072-4.419,3.211-6.735C335.634,411.365,336.852,408.943,338.095,406.607z" style="fill: rgb(130, 196, 48);"/>
      </g>
      <text transform="translate(91.171875 236)" data-element="company-name" style="fill: rgb(130, 196, 48); font-family: Iceberg; font-size: 64px; white-space: pre;">Makedo Chef</text>
      <text transform="translate(139.171875 287.33333587646484)" data-element="slogan" style="fill: rgb(130, 196, 48); font-family: 'JP Zen Old Mincho'; font-size: 28.8px; white-space: pre;">What's in Your Kitchen?</text>
    </g>
  </g>
</svg>